<svg xmlns="http://www.w3.org/2000/svg" viewBox="0 0 32 32" width="32" height="32" role="img" aria-label="Birthday Cake">
  <!-- Plate -->
  <ellipse cx="16" cy="26.5" rx="12.2" ry="3.8" fill="#5BA9E8" stroke="#1C5A8A" stroke-width="0.7"/>
  <ellipse cx="16" cy="26.5" rx="12.2" ry="3.8" fill="none" stroke="#9ED0FF" stroke-width="0.6" opacity="0.5" style="clip-path: ellipse(12.2px 1.5px at 16px 25px)"/>
  <!-- Highlight on plate -->
  <ellipse cx="16" cy="25.8" rx="11" ry="1.2" fill="#B8E0FF" opacity="0.6"/>
  <!-- Cake body - bottom -->
  <path d="M5.2 17.5 C5.2 17.5 5.2 24 5.2 24.5 C5.2 26.8 9 28.5 16 28.5 C23 28.5 26.8 26.8 26.8 24.5 C26.8 24 26.8 17.5 26.8 17.5 Z" fill="#FFD9A0" stroke="#4B2E0F" stroke-width="0.75" stroke-linejoin="round"/>
  <!-- Pink ribbon / filling -->
  <path d="M5.2 19.8 C5.2 19.8 5.2 22.2 5.2 22.8 C5.2 24.2 9 25.6 16 25.6 C23 25.6 26.8 24.2 26.8 22.8 C26.8 22.2 26.8 19.8 26.8 19.8 C26.8 20.9 23 22.6 16 22.6 C9 22.6 5.2 20.9 5.2 19.8 Z" fill="#FF6B8A" stroke="#D94A64" stroke-width="0.5"/>
  <path d="M5.2 19.8 C5.2 20.9 9 22.6 16 22.6 C23 22.6 26.8 20.9 26.8 19.8 L26.8 19.0 C26.8 20.1 23 21.8 16 21.8 C9 21.8 5.2 20.1 5.2 19.0 Z" fill="#FF8DA1" opacity="0.9"/>
  <!-- Top ellipse -->
  <ellipse cx="16" cy="14.2" rx="10.8" ry="4.4" fill="#FFF8EC" stroke="#4B2E0F" stroke-width="0.75"/>
  <!-- Icing drips -->
  <path d="M5.2 14.8 C5.2 15.6 5.6 17.8 6.8 17.2 C8 16.6 8.4 14.2 9.6 14.8 C10.8 15.4 10.6 18.8 12.2 19.2 C13.8 19.6 13.6 16.2 15.2 16 C16.8 15.8 16.8 19.4 18.6 19.6 C20.4 19.8 20.2 16.0 22 16 C23.8 16 23.2 19.4 24.8 19.0 C26.4 18.6 26 14.8 27.2 15.4 C28.4 16 26.8 13.5 26.8 13.5 L5.2 13.5 Z" fill="#FFF8EC" stroke="#4B2E0F" stroke-width="0.7" stroke-linejoin="round" stroke-linecap="round"/>
  <!-- highlight on icing -->
  <ellipse cx="16" cy="13.2" rx="9" ry="1.2" fill="white" opacity="0.7"/>
  <!-- Sprinkles -->
  <circle cx="8.2" cy="13.0" r="0.7" fill="#FF6B9C"/>
  <circle cx="11.0" cy="11.8" r="0.65" fill="#3ED598"/>
  <circle cx="14.0" cy="12.4" r="0.65" fill="#FFB84D"/>
  <circle cx="18.0" cy="12.6" r="0.65" fill="#3ED598"/>
  <circle cx="20.8" cy="11.7" r="0.65" fill="#FF6B9C"/>
  <circle cx="23.8" cy="12.9" r="0.65" fill="#5AA8FF"/>
  <circle cx="12.2" cy="14.6" r="0.6" fill="#5AA8FF"/>
  <circle cx="17.0" cy="15.0" r="0.6" fill="#FFD23F"/>
  <!-- Candles -->
  <!-- Left - pink -->
  <rect x="8.8" y="5.8" width="3.4" height="8.0" rx="1.1" fill="#FF8CAF" stroke="#7A2A42" stroke-width="0.6"/>
  <!-- pink stripes -->
  <path d="M8.8 7.8 L12.2 6.5 L12.2 7.8 L8.8 9.1 Z" fill="#FFC2D6" opacity="0.95"/>
  <path d="M8.8 10.0 L12.2 8.7 L12.2 10.0 L8.8 11.3 Z" fill="#FFC2D6" opacity="0.95"/>
  <!-- wick -->
  <rect x="10.25" y="4.6" width="0.5" height="1.8" rx="0.25" fill="#4B2E0F"/>
  <!-- flame left -->
  <path d="M10.5 1.2 C9.0 2.4 8.6 4.0 10.5 4.9 C12.4 4.0 12.0 2.4 10.5 1.2 Z" fill="#FF6A00" stroke="#A83E00" stroke-width="0.35" stroke-linejoin="round"/>
  <path d="M10.5 2.2 C9.6 3.0 9.4 3.9 10.5 4.4 C11.6 3.9 11.4 3.0 10.5 2.2 Z" fill="#FFD93D" stroke="#E6A800" stroke-width="0.2"/>
  <!-- Center - blue -->
  <rect x="14.3" y="4.2" width="3.4" height="9.6" rx="1.1" fill="#3A9CFF" stroke="#1A2F4A" stroke-width="0.65"/>
  <path d="M14.3 6.2 L17.7 4.6 L17.7 6.0 L14.3 7.6 Z" fill="#B8E0FF" opacity="0.95"/>
  <path d="M14.3 8.4 L17.7 6.8 L17.7 8.2 L14.3 9.8 Z" fill="#B8E0FF" opacity="0.95"/>
  <path d="M14.3 10.6 L17.7 9.0 L17.7 10.4 L14.3 12.0 Z" fill="#B8E0FF" opacity="0.95"/>
  <rect x="15.75" y="3.0" width="0.5" height="1.8" rx="0.25" fill="#4B2E0F"/>
  <!-- flame center - slightly larger -->
  <path d="M16.0 0.3 C14.2 1.7 13.7 3.6 16.0 4.7 C18.3 3.6 17.8 1.7 16.0 0.3 Z" fill="#FF6A00" stroke="#A83E00" stroke-width="0.35" stroke-linejoin="round"/>
  <path d="M16.0 1.4 C15.0 2.3 14.7 3.3 16.0 3.9 C17.3 3.3 17.0 2.3 16.0 1.4 Z" fill="#FFD93D" stroke="#E6A800" stroke-width="0.2"/>
  <!-- Right - purple -->
  <rect x="19.8" y="5.8" width="3.4" height="8.0" rx="1.1" fill="#9B6BFF" stroke="#3D2A6A" stroke-width="0.6"/>
  <path d="M19.8 7.8 L23.2 6.5 L23.2 7.8 L19.8 9.1 Z" fill="#D8C2FF" opacity="0.95"/>
  <path d="M19.8 10.0 L23.2 8.7 L23.2 10.0 L19.8 11.3 Z" fill="#D8C2FF" opacity="0.95"/>
  <rect x="21.25" y="4.6" width="0.5" height="1.8" rx="0.25" fill="#4B2E0F"/>
  <!-- flame right -->
  <path d="M21.5 1.2 C20.0 2.4 19.6 4.0 21.5 4.9 C23.4 4.0 23.0 2.4 21.5 1.2 Z" fill="#FF6A00" stroke="#A83E00" stroke-width="0.35" stroke-linejoin="round"/>
  <path d="M21.5 2.2 C20.6 3.0 20.4 3.9 21.5 4.4 C22.6 3.9 22.4 3.0 21.5 2.2 Z" fill="#FFD93D" stroke="#E6A800" stroke-width="0.2"/>
</svg>